<svg id="Vrstva_1" data-name="Vrstva 1" xmlns="http://www.w3.org/2000/svg" viewBox="0 0 307.32 159.27"><defs><style>.cls-1,.cls-2,.cls-3{fill:none;}.cls-1,.cls-2,.cls-3,.cls-4,.cls-5{stroke:#5d5d5d;stroke-miterlimit:10;}.cls-2{stroke-width:4px;}.cls-3{stroke-width:3px;}.cls-4,.cls-5{font-size:18.45px;fill:#1d1d1b;stroke-width:0.75px;}.cls-4{font-family:CourierNewPSMT, Courier New;}.cls-5{font-family:MyriadPro-Regular, Myriad Pro;}</style></defs><path class="cls-1" d="M460.8,563" transform="translate(-168.9 -494.41)"/><path class="cls-1" d="M192.21,565.06" transform="translate(-168.9 -494.41)"/><path class="cls-1" d="M365.32,509.24" transform="translate(-168.9 -494.41)"/><path class="cls-1" d="M372.91,511" transform="translate(-168.9 -494.41)"/><path class="cls-2" d="M463.77,565.06a194.61,194.61,0,0,1-68.54,45.45l-8.91,3.32,55.15-68.92A187.34,187.34,0,0,0,372.91,511" transform="translate(-168.9 -494.41)"/><path class="cls-1" d="M365.32,509.23" transform="translate(-168.9 -494.41)"/><path class="cls-1" d="M291,508.63" transform="translate(-168.9 -494.41)"/><path class="cls-2" d="M273.57,524.69c2.69-5.16,9.58-13.71,9.58-13.71a187.72,187.72,0,0,0-68.65,33.93l55.34,68.92-9.1-3.32a194.57,194.57,0,0,1-68.53-45.45" transform="translate(-168.9 -494.41)"/><path class="cls-3" d="M189.36,561.45c34.94-39.79,84.59-65.29,138.53-65.54,52.81-.24,103.33,25.67,138.64,65.54" transform="translate(-168.9 -494.41)"/><path class="cls-2" d="M274.51,578.26c-1.37,14.7,12.33,40.33,12.33,40.33,12.4,4.17,30.2,5.77,42.8,5.77h0c13.39,0,26.53-2.48,37.48-4.76,13.31-13.51,17.37-28.74,15.77-47.08-2.21-25.32-15.11-23-55-10C305,570,280.52,573.33,274.5,557.18c-5.69-15.29,7.77-38.89,16.51-48a179.27,179.27,0,0,1,36.52-3.74h.92a175.35,175.35,0,0,1,36.48,3.74l.39.07a62.42,62.42,0,0,1,15.89,34.38" transform="translate(-168.9 -494.41)"/><text class="cls-4" transform="translate(8.89 79.86) rotate(41.91) scale(0.9 1)"> </text><text class="cls-4" transform="matrix(0.68, 0.58, -0.65, 0.76, 16.4, 86.6)">S</text><text class="cls-4" transform="matrix(0.7, 0.56, -0.62, 0.78, 24.1, 93.15)">e</text><text class="cls-4" transform="matrix(0.72, 0.54, -0.6, 0.8, 31.99, 99.46)">c</text><text class="cls-4" transform="translate(40.12 105.54) rotate(34.75) scale(0.9 1)">u</text><text class="cls-4" transform="matrix(0.76, 0.48, -0.54, 0.84, 48.46, 111.32)">r</text><text class="cls-4" transform="translate(57.04 116.79) rotate(30.13) scale(0.9 1)">i</text><text class="cls-4" transform="matrix(0.8, 0.42, -0.46, 0.89, 65.85, 121.9)">t</text><text class="cls-4" transform="matrix(0.82, 0.38, -0.42, 0.91, 74.89, 126.61)">y</text><text class="cls-4" transform="translate(84.17 130.9) rotate(21.9) scale(0.9 1)"> </text><text class="cls-4" transform="translate(93.64 134.7) rotate(18.88) scale(0.9 1)"> </text><text class="cls-4" transform="matrix(0.86, 0.24, -0.27, 0.96, 103.35, 138.01)"> </text><text class="cls-4" transform="matrix(0.88, 0.2, -0.22, 0.98, 113.19, 140.78)"> </text><text class="cls-4" transform="translate(123.2 143.01) rotate(9.41) scale(0.9 1)">S</text><text class="cls-4" transform="translate(133.31 144.68) rotate(6.25) scale(0.9 1)">y</text><text class="cls-4" transform="translate(143.47 145.78) rotate(3.17) scale(0.9 1)">s</text><text class="cls-4" transform="matrix(0.9, 0.01, -0.01, 1, 153.66, 146.31)">t</text><text class="cls-4" transform="translate(163.91 146.36) rotate(-2.85) scale(0.9 1)">e</text><text class="cls-4" transform="translate(174.13 145.84) rotate(-5.9) scale(0.9 1)">m</text><text class="cls-4" transform="translate(184.29 144.79) rotate(-8.93) scale(0.9 1)"> </text><text class="cls-4" transform="matrix(0.88, -0.19, 0.21, 0.98, 194.39, 143.19)"> </text><text class="cls-4" transform="translate(204.4 141.07) rotate(-14.92) scale(0.9 1)"> </text><text class="cls-4" transform="translate(214.26 138.43) rotate(-17.86) scale(0.9 1)"> </text><text class="cls-4" transform="translate(223.99 135.29) rotate(-20.75) scale(0.9 1)">Z</text><text class="cls-4" transform="translate(233.53 131.67) rotate(-23.58) scale(0.9 1)">á</text><text class="cls-4" transform="matrix(0.8, -0.4, 0.44, 0.9, 242.89, 127.58)">l</text><text class="cls-4" transform="matrix(0.79, -0.44, 0.49, 0.87, 252.01, 123.05)">e</text><text class="cls-4" transform="translate(260.92 118.09) rotate(-31.7) scale(0.9 1)">s</text><text class="cls-4" transform="matrix(0.74, -0.51, 0.56, 0.83, 269.57, 112.74)">k</text><text class="cls-4" transform="translate(278 107) rotate(-36.79) scale(0.9 1)">ý</text><text class="cls-5" transform="translate(286.65 101.65) rotate(-38.46) scale(0.9 1)"> </text></svg>